<svg width="144" height="12" viewBox="0 0 144 12" fill="none" xmlns="http://www.w3.org/2000/svg">
<path d="M69.7716 0.202478C71.6197 0.223276 73.5123 0.204644 75.3639 0.205512C75.7929 0.801593 76.0878 1.49297 76.462 2.12581C77.5298 3.93272 78.5032 5.77213 79.5408 7.60044C80.1255 6.85177 80.6079 5.84081 81.0772 5.00576C81.9663 3.42544 82.7947 1.77741 83.7609 0.241269C85.1135 0.121715 87.8692 0.206943 89.3156 0.211006V11.6876C88.1994 11.6588 86.9622 11.6831 85.8367 11.684C85.8778 9.8372 85.8461 7.8889 85.8482 6.03421C85.8525 5.12499 85.8684 4.19063 85.8316 3.28412C85.4553 3.77689 84.7753 5.08742 84.4264 5.68561L80.9511 11.6838L78.24 11.6833C77.93 11.2255 77.6084 10.6095 77.315 10.1193C76.4252 8.63125 75.5571 7.13155 74.7099 5.62068C74.3141 4.92923 73.7445 3.86126 73.2802 3.24613C73.2153 3.76661 73.2564 5.41964 73.2564 6.00949L73.2614 11.6748L69.7612 11.6894L69.7716 0.202478Z" fill="#262E76"/>
<path fill-rule="evenodd" clip-rule="evenodd" d="M0.000977266 0.198267C2.45776 0.254717 5.00244 0.166348 7.47706 0.199209C10.9563 0.245401 14.3498 -0.328946 14.3338 4.20787C14.3257 6.50802 14.0577 8.56253 11.1743 8.76829L3.6667 8.76377C3.64439 9.72407 3.65407 10.7207 3.64989 11.684C2.43326 11.6759 1.21658 11.6792 0 11.6934L0.000977266 0.198267ZM10.0911 3.22266C9.31017 2.80081 4.88378 2.99896 3.66299 2.99924L3.6495 5.95412L7.43602 5.97089C8.29841 5.97339 9.60557 6.105 10.3278 5.64914C10.6317 5.14839 10.7005 4.41584 10.5453 3.85787C10.4752 3.60587 10.3348 3.35439 10.0911 3.22266Z" fill="#262E76"/>
<path d="M62.8548 0.19805C64.0261 0.224473 65.2799 0.205973 66.4577 0.208341C66.4396 1.37759 66.4996 11.4691 66.3766 11.6761C64.5458 11.6802 62.6561 11.7064 60.8299 11.6686C60.4086 11.2805 59.5771 10.193 59.1822 9.71071L56.027 5.86466C55.3541 5.03489 54.5623 3.97067 53.8146 3.24318L53.8204 11.6806C52.6147 11.6774 51.4092 11.6821 50.2037 11.6949L50.1963 0.203723C52.0764 0.202154 54.0134 0.178418 55.889 0.217244C56.2279 0.58537 56.6904 1.19835 57.0263 1.60286C57.9371 2.68117 58.8312 3.77241 59.7084 4.87628C60.7571 6.18368 61.7841 7.3479 62.8287 8.69878C62.9217 5.97779 62.8556 2.94242 62.8548 0.19805Z" fill="#262E76"/>
<path d="M113.318 0.0741145C115.623 -0.0856815 118.598 0.0386218 120.902 0.204216C123.831 0.414775 124.037 1.91731 124.227 4.36067C123.015 4.35553 121.801 4.35796 120.588 4.36803C120.568 4.13088 120.552 3.87845 120.467 3.65346C120.384 3.43332 120.194 3.23957 119.972 3.14451C119.331 2.87048 114.251 2.90618 113.605 3.1443C113.207 3.29055 112.866 3.56283 112.69 3.94213C112.347 4.68767 112.372 7.28388 112.678 8.04019C112.797 8.33449 113.004 8.58004 113.31 8.70691C114.161 9.05989 119.326 9.03198 120.21 8.69761C120.64 8.33275 120.663 7.81748 120.715 7.30631L124.346 7.32937C124.317 8.61122 124.35 10.5338 123.005 11.2196C121.169 12.0921 119.084 12.0051 117.068 11.9911C114.921 11.9763 111.585 12.1839 109.829 10.7692C108.475 9.37135 108.736 7.43652 108.711 5.71717C108.656 1.86286 109.111 0.403817 113.318 0.0741145Z" fill="#262E76"/>
<path fill-rule="evenodd" clip-rule="evenodd" d="M132.829 0.217104C134.215 0.184508 136.04 0.177903 137.409 0.227088C138.693 1.99808 139.706 4.40709 140.91 6.28642C142.015 8.01056 142.922 9.94433 144 11.7026C142.736 11.6385 141.264 11.683 139.99 11.6977C139.642 11.1586 139.18 10.2346 138.833 9.6303L137.45 9.63407L131.392 9.63388C131.02 10.064 130.542 11.1118 130.269 11.6601C128.947 11.7233 127.594 11.6455 126.229 11.7185C128.345 8.03937 130.33 4.262 132.462 0.587453C132.584 0.378477 132.604 0.317304 132.829 0.217104ZM135.049 2.86173C134.136 4.30479 133.503 5.71527 132.682 7.19138L135.143 7.19967C135.894 7.19599 136.736 7.20942 137.479 7.17782C137.117 6.5536 135.313 3.07752 135.049 2.86173Z" fill="#262E76"/>
<path fill-rule="evenodd" clip-rule="evenodd" d="M36.8025 0.210134C38.3516 0.205336 39.9738 0.178801 41.5166 0.218988C42.6104 1.84254 43.4719 3.93143 44.5565 5.59847C45.8203 7.5409 46.8009 9.77181 48.059 11.7077C46.8439 11.6381 45.2759 11.6795 44.0321 11.6834C43.7023 11.2027 43.1963 10.2004 42.8631 9.63105L41.5831 9.63426L35.403 9.63369C34.9916 10.3044 34.6929 11.0593 34.3013 11.6659C33.0481 11.717 31.564 11.6736 30.2781 11.6887C31.9437 8.64613 33.6475 5.62308 35.389 2.62023C35.6678 2.13456 36.4916 0.489609 36.8025 0.210134ZM39.0422 2.86022C38.2914 4.31518 37.4783 5.74529 36.7093 7.19101L39.2476 7.19967C39.9859 7.19557 40.782 7.20566 41.5153 7.18178C41.1568 6.54179 39.3578 3.05918 39.0422 2.86022Z" fill="#262E76"/>
<path d="M92.6985 0.213872C96.959 0.180831 101.458 0.152582 105.71 0.224594C105.696 1.08971 105.704 1.96852 105.702 2.83482L96.3101 2.83183L96.3209 4.74909C99.1639 4.82944 102.34 4.78458 105.2 4.7593C105.191 5.50894 105.194 6.25872 105.209 7.00822L99.9577 7.00836C98.7457 7.00343 97.5337 7.0094 96.3217 7.02628L96.3188 8.97993C99.4862 9.03937 102.801 8.99104 105.978 8.98972C105.967 9.88269 105.978 10.7929 105.978 11.6874C101.713 11.5868 96.9951 11.6801 92.6957 11.6804L92.6985 0.213872Z" fill="#262E76"/>
<path d="M17.1538 0.204415C18.3629 0.203276 19.572 0.207956 20.7811 0.21847C20.7036 2.98633 20.7628 5.99948 20.7612 8.78603C23.4963 8.827 26.3221 8.79422 29.0619 8.78762L29.0546 11.6898C25.1344 11.6278 21.0732 11.6809 17.142 11.6818C17.2011 7.90299 17.1526 3.9968 17.1538 0.204415Z" fill="#262E76"/>
</svg>
