<svg width="144" height="26" viewBox="0 0 144 26" fill="none" xmlns="http://www.w3.org/2000/svg">
<path d="M99.6458 0.0202505C99.7291 0.0102501 99.8057 0.00279716 99.8889 0.00562745C103.79 0.136293 106.146 1.40124 108.795 4.10229L108.801 0.62499C110.502 0.585649 112.252 0.612727 113.955 0.61867L113.96 25.4029C112.308 25.4572 110.453 25.419 108.796 25.4029L108.799 21.8866C107.982 22.7275 107.559 23.1259 106.658 23.8371C105.023 25.0248 103.099 25.7531 101.086 25.9453C97.907 26.2439 94.7406 25.2652 92.2885 23.2264C84.7477 16.9713 86.6795 3.72784 96.2117 0.617821C97.3962 0.231392 98.4236 0.123367 99.6458 0.0202505ZM102 21.0761C106.479 20.464 109.608 16.3376 108.977 11.8725C108.346 7.40722 104.196 4.30352 99.7206 4.94987C95.2695 5.59272 92.1779 9.70372 92.806 14.1448C93.4332 18.5859 97.5437 21.6848 102 21.0761Z" fill="black"/>
<path d="M39.7874 0.0206983C40.0085 0.00909407 40.2302 0.00975411 40.4511 0.0226791C43.9737 0.22797 46.6074 1.49094 48.9634 4.13415L48.9739 0.618269C50.6801 0.604117 52.3865 0.604398 54.0927 0.61921L54.097 25.4027C52.3889 25.4247 50.6807 25.4268 48.9725 25.4088L48.9759 21.8679C48.3074 22.6451 47.7084 23.1467 46.9206 23.7712C45.2711 24.9923 43.3204 25.7442 41.2763 25.9469C38.1004 26.2463 34.9359 25.2709 32.4832 23.2367C24.4929 16.6631 27.2235 2.30276 37.778 0.263443C38.4421 0.135136 39.1144 0.0803231 39.7874 0.0206983ZM42.117 21.0857C46.6137 20.5046 49.7748 16.3817 49.1588 11.9018C48.5426 7.42191 44.385 4.3001 39.8975 4.94777C35.4569 5.58873 32.3662 9.68218 32.9759 14.1153C33.5856 18.5484 37.6673 21.6608 42.117 21.0857Z" fill="black"/>
<path d="M131.177 0.0218436C131.269 0.0107112 131.363 0.00410795 131.457 0.0020324C134.699 -0.0598566 138.108 1.29529 140.42 3.57631C144.321 7.42476 143.994 11.7462 143.993 16.7209L143.985 25.4005C142.29 25.4434 140.546 25.4157 138.847 25.4085L138.85 16.4333C138.857 11.9578 139.255 7.29173 134.088 5.26005C133.353 4.97108 132.708 4.92051 131.934 4.83513C129.814 4.82108 128.043 5.30694 126.5 6.80577C123.711 9.51323 124.187 13.3276 124.191 16.857L124.184 25.4064C122.467 25.4326 120.749 25.4276 119.032 25.3914L119.019 17.4577C119.016 14.8421 118.856 11.8436 119.456 9.3369C119.897 7.46551 120.774 5.72403 122.015 4.25351C124.478 1.34321 127.512 0.324874 131.177 0.0218436Z" fill="black"/>
<path d="M21.8098 0.620073C23.6521 0.602525 25.4945 0.603563 27.3368 0.62328C26.8262 1.58605 25.8931 3.88378 25.4665 4.93174C24.4188 6.94757 22.8884 10.7487 21.9449 12.9401C20.1763 17.0473 18.2016 21.295 16.5262 25.4052C15.17 25.4681 12.0699 25.4572 10.7679 25.3844L4.05308 9.9941C2.76629 7.04918 1.15397 3.59235 0 0.641678C1.61241 0.54592 3.97446 0.597904 5.60362 0.632905L11.026 13.2503C11.8659 15.2035 12.8154 17.5758 13.7384 19.4656C16.4872 13.3072 19.1266 6.83068 21.8098 0.620073Z" fill="black"/>
<path d="M69.0507 0.676891C69.9666 0.533301 72.9438 0.61085 73.9948 0.618964C74.0128 2.23412 74.0147 3.84955 74.0005 5.4648C72.6912 5.5433 71.1738 5.3814 69.8493 5.54009C63.8636 6.25691 64.4011 11.3561 64.4045 15.751L64.4304 23.2572C64.4329 23.7221 64.5122 25.1363 64.2838 25.4145C62.6049 25.4294 60.9258 25.4243 59.247 25.3992C59.309 24.4693 59.2542 22.7538 59.2532 21.772L59.2491 14.456C59.2492 12.7294 59.1826 11.1019 59.4914 9.39098C60.4606 4.02173 63.7555 1.32078 69.0507 0.676891Z" fill="black"/>
<path d="M77.9664 0.639974C79.2057 0.532328 81.7344 0.611012 83.0608 0.626013L83.0674 18.605C83.0674 19.5836 83.1232 24.9118 82.9804 25.4046C81.3078 25.4291 79.6352 25.4255 77.9626 25.394C77.8538 17.2996 77.9068 8.74527 77.9664 0.639974Z" fill="black"/>
</svg>
