<svg width="144" height="53" viewBox="0 0 144 53" fill="none" xmlns="http://www.w3.org/2000/svg">
<path d="M48.8896 1.14452L48.9723 0.97838C49.6523 0.832938 52.2506 0.884184 53.1422 0.882723L62.2823 0.879069C73.1538 0.878338 84.4683 0.708557 95.3102 0.919234L95.3161 52.2846L58.6938 52.2943C56.9169 52.2906 49.9723 52.5438 48.7993 52.2188C48.9705 45.1074 48.7046 37.7191 48.8225 30.5785C48.8627 28.1474 48.7105 25.3011 48.8381 22.9249C48.6833 19.4486 48.826 15.0726 48.8173 11.5216C48.8097 8.45166 48.7102 4.1377 48.8896 1.14452Z" fill="url(#paint0_linear_716_17980)"/>
<path d="M97.5732 1.14452L97.6559 0.97838C98.3359 0.832938 100.934 0.884184 101.826 0.882723L110.966 0.879069C121.837 0.878338 133.152 0.708557 143.994 0.919234L144 52.2846L107.377 52.2943C105.6 52.2906 98.6559 52.5438 97.4829 52.2188C97.6541 45.1074 97.3882 37.7191 97.5061 30.5785C97.5463 28.1474 97.3941 25.3011 97.5217 22.9249C97.3669 19.4486 97.5096 15.0726 97.5009 11.5216C97.4933 8.45166 97.3938 4.1377 97.5732 1.14452Z" fill="url(#paint1_linear_716_17980)"/>
<path d="M100.375 7.97314C101.661 8.228 107.889 8.08691 109.492 8.08447C116.4 8.04906 123.309 8.07165 130.217 8.15283L130.523 8.26123C136.997 9.22102 138.52 13.6392 138.254 19.4546C137.965 25.7413 139.688 31.4678 132.368 34.272L137.986 41.2935C138.892 42.42 140.221 43.9538 141.025 45.0796C137.714 45.2633 132.333 45.1883 128.894 45.1226C127.394 43.1777 125.948 41.2047 124.465 39.2485C123.407 37.8541 122.235 36.4578 121.264 35.0093L111.167 34.9995C111.179 38.3459 111.12 41.8437 111.19 45.1675C107.751 45.0945 103.932 45.0628 100.504 45.1724C100.247 38.5529 100.545 31.6038 100.43 24.9624C100.388 22.5805 100.53 19.6335 100.38 17.3335C100.43 16.9444 100.422 16.3323 100.418 15.9253C100.394 13.2904 100.485 10.6026 100.375 7.97314ZM127.359 16.8452C126.178 16.3911 113.306 16.6128 111.172 16.6646C111.213 20.0181 111.225 23.3722 111.208 26.7261L121.524 26.7095C122.759 26.7117 127.076 26.9569 127.874 26.3208C128.026 26.0006 128.138 25.6984 128.182 25.3442C128.318 24.2521 128.364 18.5124 128.037 17.6724C127.913 17.3529 127.69 16.973 127.359 16.8452Z" fill="#FBFDFC"/>
<path d="M48.6182 9.89941C48.3147 11.5424 48.8441 15.6812 48.0537 17.4287V38.1611C48.0533 39.5762 48.0413 41.0457 48.0312 42.5342C48.041 41.0457 48.0523 39.5762 48.0527 38.1611V17.4287C48.0526 17.4255 48.0518 17.4222 48.0518 17.4189C48.8382 15.6616 48.3072 11.518 48.6152 9.88672L48.6182 9.89941ZM52.6719 7.58984C53.4106 7.38148 62.2951 7.52046 63.0977 7.66895L63.2842 7.96484C63.2704 11.5969 63.2771 15.2294 63.3037 18.8613C63.3107 20.6204 63.3775 22.8028 63.2939 24.5352C64.1767 23.868 65.4722 22.5115 66.3154 21.6836L71.126 17.0078C73.6055 14.612 78.2253 10.5223 80.3779 8.09082L88.6035 8.08398C89.4771 8.08386 91.8929 8.032 92.6582 8.16211C92.6505 8.44284 92.6806 8.36004 92.5381 8.58105L92.541 8.58203C91.5428 9.33559 90.1439 10.7263 89.21 11.6328L80.209 20.0293C78.769 21.3689 76.8548 23.2684 75.3887 24.4932C77.2487 26.4025 79.2258 28.744 81.0029 30.7646L89.9385 40.9121C91.1633 42.3018 92.4424 43.8663 93.7061 45.1855C89.1022 45.0578 84.2906 45.1275 79.6699 45.1348C76.7751 41.9449 73.863 38.7701 70.9346 35.6113C69.8383 34.4218 68.3623 32.6507 67.291 31.5957C66.0884 32.8283 64.5125 34.3172 63.1934 35.416C63.3217 38.1402 63.3225 42.4078 63.252 45.1729C59.7035 45.1144 56.1541 45.1068 52.6055 45.1494C52.5575 40.3893 52.5476 35.6285 52.5762 30.8682C52.5799 28.9804 52.6758 25.8666 52.5459 24.0801C52.3995 23.2034 52.394 21.1572 52.3779 20.1875C52.352 17.3678 52.3472 14.5474 52.3623 11.7275C52.3601 11.7189 52.3586 11.7099 52.3564 11.7012C52.3421 10.6844 52.1716 8.29446 52.6719 7.58984ZM96.1836 0.685547C96.3662 2.13638 96.3748 15.483 96.1182 16.1182C95.9782 18.9731 96.1465 22.0979 96.0801 24.9971C96.0786 24.9956 96.0777 24.9931 96.0762 24.9912C96.1423 22.0936 95.9744 18.9712 96.1143 16.1182C96.3709 15.4829 96.3623 2.13541 96.1797 0.685547C96.1285 0.638205 96.0776 0.590432 96.0264 0.542969C96.0276 0.542963 96.029 0.542974 96.0303 0.542969C96.0814 0.59037 96.1324 0.638268 96.1836 0.685547ZM52.0137 7.84277C51.9364 7.86132 51.8605 7.90472 51.709 7.9707C50.8839 9.75645 52.4975 9.17485 50.2041 11.6328L50.1328 11.708L50.1309 11.7051L50.2002 11.6328C52.4937 9.17478 50.8799 9.75653 51.7051 7.9707C51.8591 7.90361 51.9351 7.86075 52.0137 7.84277ZM94.4072 8.62695C94.1479 8.632 93.9332 8.71677 93.7227 9.52539C93.7217 9.52416 93.7206 9.52271 93.7197 9.52148C93.931 8.71257 94.1467 8.6312 94.4072 8.62695ZM95.5684 6.55078C95.3729 6.89048 95.4614 7.63525 95.3604 8.2041C95.0671 8.57571 94.8217 8.62328 94.6074 8.62695C94.8206 8.62274 95.064 8.57335 95.3555 8.2041C95.4568 7.6336 95.3678 6.88617 95.5654 6.54785L95.5684 6.55078ZM52.0742 7.83398C52.0573 7.83526 52.0412 7.83752 52.0254 7.84082C52.0397 7.83801 52.0541 7.83515 52.0693 7.83398H52.0742ZM60.9941 0C61.3867 0.0153192 61.7863 0.120488 62.1084 0.264648L61.8545 0.539062C62.1444 0.62915 65.0574 0.595714 67.2412 0.574219C65.0564 0.595691 62.1392 0.629299 61.8506 0.539062L62.1045 0.264648C61.7823 0.120427 61.383 0.0152531 60.9902 0H60.9941ZM69.127 0.5625C73.5241 0.571686 78.0387 0.576222 82.5586 0.574219C78.0384 0.576272 73.5235 0.571685 69.126 0.5625H69.127ZM95.9365 0.542969C91.5578 0.56331 87.0752 0.572143 82.5977 0.574219C87.0752 0.572192 91.5578 0.563303 95.9365 0.542969ZM49.9766 0.526367C49.5362 0.53465 49.1536 0.547202 48.8506 0.563477C49.1533 0.547142 49.5359 0.534684 49.9766 0.526367ZM51.8574 0.509766C54.4644 0.504791 57.7549 0.549881 59.4092 0.543945C57.7568 0.549947 54.4657 0.504865 51.8574 0.509766Z" fill="#FBFDFC"/>
<path d="M0.123946 1.14452L0.206707 0.97838C0.886693 0.832938 3.48493 0.884184 4.37657 0.882723L13.5166 0.879069C24.3881 0.878338 35.7027 0.708557 46.5446 0.919234L46.5504 52.2846L9.92819 52.2943C8.15124 52.2906 1.20667 52.5438 0.0336372 52.2188C0.204881 45.1074 -0.0610528 37.7191 0.0568829 30.5785C0.0970468 28.1474 -0.0550883 25.3011 0.0724623 22.9249C-0.0823511 19.4486 0.0604125 15.0726 0.0516495 11.5216C0.0441036 8.45166 -0.055453 4.1377 0.123946 1.14452Z" fill="url(#paint2_linear_716_17980)"/>
<path d="M6.51562 8.02398C6.71413 7.85298 6.76878 7.74406 7.04834 7.73347C9.79409 7.62904 12.5554 7.74613 15.2997 7.58961L15.2252 7.55528C17.319 7.35106 19.2883 7.70413 21.2615 7.59995C24.7666 7.41495 28.3217 7.59277 31.7924 7.4253C32.4723 7.28424 34.4876 7.40266 35.3142 7.45061C37.3768 7.57001 40.3742 7.17044 42.3174 7.70523C42.9054 8.27361 42.4014 10.1226 42.3408 10.9417C42.2671 11.9395 42.7058 16.2706 42.3128 16.7504L42.2658 16.7674C41.9864 16.0014 42.1866 9.31544 42.2002 8.08886L17.7922 8.08167L10.8592 8.10432C9.60934 8.10906 7.69802 8.16565 6.51562 8.02398Z" fill="#0A69B5"/>
<path d="M31.792 7.42432C32.4748 7.28422 34.4861 7.4028 35.3115 7.45068C37.3741 7.57003 40.3713 7.1708 42.3145 7.70557C42.9023 8.274 42.3985 10.1228 42.3379 10.9419C42.2642 11.9398 42.7026 16.2707 42.3096 16.7505L42.2627 16.7681C37.1041 21.2395 31.9177 25.6798 26.7051 30.0884C24.038 32.3594 21.3345 34.7584 18.6299 36.9663C20.5958 37.0513 22.6323 37.076 24.6025 37.061C30.4546 37.0166 36.3334 37.1234 42.1826 37.0298L42.1572 45.1821C38.2739 45.0166 33.7532 45.1428 29.8057 45.1489L5.82227 45.1284L5.80469 36.5005C12.2818 31.4566 18.9132 25.1586 25.3926 19.7378L26.6865 18.6655C27.5141 17.892 28.5601 17.1068 29.459 16.397L27.2373 16.395L27.4404 16.6333C27.4307 16.6353 27.4205 16.6354 27.4111 16.6372C27.4203 16.6354 27.4299 16.6352 27.4395 16.6333L27.2363 16.396C20.6248 16.3954 13.9911 16.3991 7.37793 16.3901C6.81358 16.3894 6.79453 16.3938 6.5 16.0747C6.50024 16.0728 6.49976 16.0708 6.5 16.0688C6.5006 16.0705 6.50135 16.0721 6.50195 16.0737C6.6778 14.7081 6.55226 9.60547 6.51562 8.02393C6.68076 7.88166 6.74636 7.78298 6.9248 7.74756C6.95999 7.74076 6.9994 7.73563 7.04492 7.73389C7.35886 7.72195 7.673 7.71247 7.9873 7.70557C10.423 7.65207 12.8682 7.72804 15.2998 7.58936L15.2246 7.55518C15.7472 7.5042 16.2624 7.48804 16.7715 7.49072C18.0465 7.49767 19.2854 7.62225 20.5195 7.61865C20.5251 7.61864 20.5306 7.61867 20.5361 7.61865C20.7635 7.61777 20.9906 7.61235 21.2178 7.60107C21.2323 7.60036 21.2472 7.60086 21.2617 7.6001C24.7666 7.41514 28.3214 7.59274 31.792 7.42529V7.42432ZM26.4248 17.4185C26.4384 17.3757 26.454 17.3307 26.4727 17.2827L26.4883 17.2446C26.4633 17.3073 26.4422 17.3646 26.4248 17.4185ZM26.3799 17.5962C26.3891 17.5419 26.4038 17.4859 26.4229 17.4253C26.4036 17.4858 26.3891 17.5419 26.3799 17.5962Z" fill="#FBFDFC"/>
<defs>
<linearGradient id="paint0_linear_716_17980" x1="72.0408" y1="0.813721" x2="72.0408" y2="52.3848" gradientUnits="userSpaceOnUse">
<stop stop-color="#0266B1"/>
<stop offset="1" stop-color="#039FDE"/>
</linearGradient>
<linearGradient id="paint1_linear_716_17980" x1="120.724" y1="0.813721" x2="120.724" y2="52.3848" gradientUnits="userSpaceOnUse">
<stop stop-color="#0266B1"/>
<stop offset="1" stop-color="#039FDE"/>
</linearGradient>
<linearGradient id="paint2_linear_716_17980" x1="23.2752" y1="0.813721" x2="23.2752" y2="52.3848" gradientUnits="userSpaceOnUse">
<stop stop-color="#0266B1"/>
<stop offset="1" stop-color="#039FDE"/>
</linearGradient>
</defs>
</svg>
