<svg width="144" height="33" viewBox="0 0 144 33" fill="none" xmlns="http://www.w3.org/2000/svg">
<path fill-rule="evenodd" clip-rule="evenodd" d="M112.444 17.3793C114.583 17.2748 117.415 18.0332 119.036 19.4723C122.976 22.9695 122.267 29.766 117.295 31.9798C115.789 32.6504 114.732 32.856 113.086 32.9483C108.606 32.9018 104.282 30.9654 103.928 25.8927C103.548 20.439 107.391 17.7691 112.444 17.3793ZM113.926 30.9889C122.36 29.8917 121.58 18.6844 111.56 19.3197C102.022 21.3614 105.439 32.3675 113.926 30.9889Z" fill="#70268C"/>
<path fill-rule="evenodd" clip-rule="evenodd" d="M128.957 17.8497C131.686 17.8375 137.175 17.5036 139.667 17.9923C144.894 19.017 145.237 24.5341 139.632 26.4731C140.974 28.3865 142.56 30.6674 144 32.4828C143.32 32.4267 142.242 32.4655 141.526 32.4727C140.114 30.602 138.719 28.5122 137.287 26.5596C135.282 26.4829 132.846 26.437 130.856 26.5719L130.854 32.4806L128.987 32.4637C128.949 27.5925 128.939 22.7211 128.957 17.8497ZM140.792 20.4489C138.242 19.0385 133.775 20.0263 130.899 19.7363C130.794 21.1412 130.858 23.1861 130.872 24.6282C132.906 24.6438 139.591 25.0786 140.954 23.9481C141.781 22.9242 141.986 21.1088 140.792 20.4489Z" fill="#70268C"/>
<path d="M10.3999 17.944C11.3786 17.9386 12.357 17.9166 13.3349 17.8782L18.5493 25.3669C19.6833 23.7298 22.6028 19.1877 23.8155 17.9446L26.6544 17.9066L26.6637 32.5208C25.8211 32.6092 24.636 32.5769 23.7624 32.5766L23.7583 26.1006L23.709 23.1624C22.1506 25.6515 20.0286 28.1892 18.6136 30.7583C16.7711 28.1668 15.284 25.7884 13.3243 23.2109C13.5539 25.6071 13.4237 30.0567 13.4259 32.5763C12.4127 32.5842 11.3994 32.5731 10.3868 32.5429C10.5005 31.5319 10.4614 28.1157 10.4454 27.0027C10.4033 24.0758 10.5246 20.8277 10.3999 17.944Z" fill="#70268C"/>
<path d="M34.9207 17.9328C35.9611 17.9177 36.8309 17.9255 37.8695 17.978C39.2705 19.5075 41.606 23.2798 43.052 25.1941C43.848 24.2652 47.6566 18.2604 48.3334 18.0842C49.2925 17.8345 50.314 17.9146 51.2992 17.9307L51.3014 32.5257C50.3322 32.5605 49.3512 32.5808 48.3808 32.6017L48.3988 26.4314L48.3377 23.1791C46.4546 25.5574 44.8923 28.2877 43.0287 30.6128C41.2979 28.1004 39.6445 25.5617 37.8117 23.1188C37.731 26.1739 37.7858 29.4729 37.783 32.5466L34.9013 32.5942C34.9646 27.7454 34.9019 22.7951 34.9207 17.9328Z" fill="#70268C"/>
<path d="M70.7739 17.9457L73.652 17.9219L73.6506 20.6044C73.664 23.7327 74.2828 28.7396 72.1884 31.0979C69.59 34.0236 60.5716 33.7006 59.8099 29.246C59.2571 26.0137 59.5064 21.3376 59.5189 17.9329L62.366 17.9101C62.4035 19.8379 61.916 27.9003 62.9822 29.0738C63.7868 29.9593 64.9334 30.0692 66.0615 30.1218C67.3447 30.1815 68.811 30.1852 69.8075 29.2495C70.2559 28.8285 70.5346 28.2652 70.6644 27.6706C70.9293 26.4571 70.7902 25.0597 70.778 23.8209C70.7399 21.8627 70.7384 19.904 70.7739 17.9457Z" fill="#70268C"/>
<path d="M88.8728 17.4884C88.9316 17.4818 88.9905 17.476 89.0493 17.4708C92.2145 17.1928 95.1986 18.3347 97.5951 20.3486C97.0767 20.9142 96.833 21.2926 96.4135 21.9238C93.2524 19.0353 88.0126 17.997 84.6966 21.2443C83.6388 22.2802 82.9436 23.7559 82.9663 25.2447C82.9885 26.7658 83.6245 28.2142 84.7314 29.2642C86.6293 31.0298 89.0324 31.0787 91.4482 30.9791C93.4925 30.7968 94.9976 30.2804 96.6019 28.9799C96.8802 29.7455 97.4742 30.1958 97.1653 30.9558C96.7537 31.3071 96.3171 31.4133 95.8463 31.6412C92.3231 33.3461 87.3473 33.5446 84.0483 31.1186C82.4526 29.9486 81.3976 28.1889 81.1211 26.2364C80.377 21.1486 84.2542 18.1569 88.8728 17.4884Z" fill="#70268C"/>
<path d="M0.0305323 17.9361L3.10498 17.9429C2.89622 22.5343 3.1411 27.8988 3.08301 32.5773C2.03399 32.545 1.06081 32.5792 0.015143 32.6139L0.0305323 17.9361Z" fill="#70268C"/>
<path d="M78.6593 2.49427C96.133 2.40736 113.582 3.80084 130.818 6.6594C134.344 7.2096 139.872 7.89672 143.289 8.64333C143.292 10.5838 143.244 12.7451 143.301 14.6661C138.831 13.7551 134.457 12.5458 130.014 11.5769C119.736 9.2639 109.376 7.32454 98.9565 5.76255C92.6934 4.83966 86.4031 4.1102 80.0946 3.57543C77.9927 3.38421 75.2532 3.36803 73.2738 3.11978L73.3251 2.97189C74.6249 2.19244 76.9018 2.63833 78.6593 2.49427Z" fill="#70268C"/>
<path d="M0 7.27676C2.49309 6.8784 4.98755 6.0729 7.43881 5.53701C21.4589 2.47193 35.602 0.715759 49.9523 0.296407C54.9572 0.150121 59.8516 -0.119612 64.9125 0.0591406C66.3781 0.233078 67.2664 0.186047 68.7602 0.532441C67.2757 0.724156 65.6328 0.73119 64.1308 0.863649C44.3348 2.61031 24.1299 5.03631 5.24993 11.4714C3.47608 12.076 1.78527 12.9552 0.0229628 13.6419L0 7.27676Z" fill="#70268C"/>
<path d="M67.0785 2.40293C69.6522 2.36429 72.2263 2.35713 74.8001 2.38157C75.7895 2.39009 77.76 2.36959 78.6593 2.49427C76.9018 2.63833 74.6249 2.19244 73.3251 2.97189L73.2738 3.11978C72.0162 3.21187 67.4716 2.8498 65.9219 2.75685L65.8823 2.68463L65.9574 2.54761L67.0785 2.40293Z" fill="#70268C"/>
<path d="M64.9125 0.0591406C66.7341 0.0274145 68.5562 0.0306262 70.3776 0.0690185C71.1244 0.0851901 72.3942 0.184193 73.0756 0.163454L73.1574 0.423313C71.8037 0.41245 69.9557 0.594659 68.7602 0.532441C67.2664 0.186047 66.3781 0.233078 64.9125 0.0591406Z" fill="#70268C"/>
</svg>
