<svg width="14" height="14" viewBox="0 0 14 14" fill="none" xmlns="http://www.w3.org/2000/svg">
<path d="M6.62654 1.30059C6.52181 1.38756 6.4508 1.50842 6.4258 1.64223L5.81267 4.88427C5.76912 5.11476 5.65709 5.32678 5.49121 5.49264C5.32532 5.65851 5.11328 5.77052 4.88276 5.81406L1.64033 6.42712C1.50651 6.45212 1.38564 6.52312 1.29866 6.62784C1.21168 6.73256 1.16406 6.86439 1.16406 7.00052C1.16406 7.13664 1.21168 7.26848 1.29866 7.37319C1.38564 7.47791 1.50651 7.54892 1.64033 7.57391L4.88276 8.18697C5.11328 8.23051 5.32532 8.34252 5.49121 8.50839C5.65709 8.67426 5.76912 8.88627 5.81267 9.11677L6.4258 12.3588C6.4508 12.4926 6.52181 12.6135 6.62654 12.7004C6.73127 12.7874 6.86312 12.835 6.99926 12.835C7.1354 12.835 7.26726 12.7874 7.37199 12.7004C7.47672 12.6135 7.54773 12.4926 7.57273 12.3588L8.18586 9.11677C8.22941 8.88627 8.34143 8.67426 8.50732 8.50839C8.6732 8.34252 8.88525 8.23051 9.11577 8.18697L12.3582 7.57391C12.492 7.54892 12.6129 7.47791 12.6999 7.37319C12.7868 7.26848 12.8345 7.13664 12.8345 7.00052C12.8345 6.86439 12.7868 6.73256 12.6999 6.62784C12.6129 6.52312 12.492 6.45212 12.3582 6.42712L9.11577 5.81406C8.88525 5.77052 8.6732 5.65851 8.50732 5.49264C8.34143 5.32678 8.22941 5.11476 8.18586 4.88427L7.57273 1.64223C7.54773 1.50842 7.47672 1.38756 7.37199 1.30059C7.26726 1.21362 7.1354 1.16602 6.99926 1.16602C6.86312 1.16602 6.73127 1.21362 6.62654 1.30059Z" fill="#B7CCFF"/>
<path d="M2.33225 12.8334C2.97663 12.8334 3.49901 12.311 3.49901 11.6667C3.49901 11.0224 2.97663 10.5001 2.33225 10.5001C1.68786 10.5001 1.16549 11.0224 1.16549 11.6667C1.16549 12.311 1.68786 12.8334 2.33225 12.8334Z" fill="#B7CCFF"/>
<path d="M11.6668 1.16797V3.50121M12.8335 2.33459H10.5" stroke="#B7CCFF" stroke-linecap="round"/>
</svg>
